<?xml version="1.0" standalone="no"?>
<!DOCTYPE svg PUBLIC "-//W3C//DTD SVG 20010904//EN"
 "http://www.w3.org/TR/2001/REC-SVG-20010904/DTD/svg10.dtd">
<svg version="1.0" xmlns="http://www.w3.org/2000/svg"
 width="429.000000pt" height="497.000000pt" viewBox="0 0 429.000000 497.000000"
 preserveAspectRatio="xMidYMid meet">

<g transform="translate(0.000000,497.000000) scale(0.100000,-0.100000)"
fill="#000000" stroke="none">
<path d="M1073 4963 c593 -2 1561 -2 2150 0 590 1 105 2 -1078 2 -1182 0
-1665 -1 -1072 -2z"/>
<path d="M1680 4060 c0 -5 5 -10 11 -10 5 0 7 5 4 10 -3 6 -8 10 -11 10 -2 0
-4 -4 -4 -10z"/>
<path d="M1980 4010 c0 -5 5 -10 10 -10 6 0 10 5 10 10 0 6 -4 10 -10 10 -5 0
-10 -4 -10 -10z"/>
<path d="M2110 4006 c0 -14 -29 -26 -62 -26 -10 0 -18 7 -18 17 0 13 -3 14
-12 5 -16 -16 -55 -15 -61 1 -3 7 -6 5 -6 -5 -1 -21 -17 -24 -24 -5 -2 6 -2 0
0 -15 6 -39 -14 -35 -23 5 -4 17 -9 26 -11 20 -3 -7 -11 -13 -19 -13 -8 0 -14
-4 -14 -9 0 -5 9 -7 20 -4 17 5 20 0 20 -33 0 -27 -3 -35 -9 -25 -5 8 -7 20
-4 28 3 7 -2 13 -11 13 -10 0 -13 -6 -10 -15 4 -8 1 -15 -4 -15 -6 0 -13 8
-15 18 -4 13 -5 11 -6 -5 -2 -34 -21 -28 -21 7 0 17 -5 30 -11 30 -6 0 -9 -7
-6 -15 4 -8 2 -17 -3 -20 -6 -4 -10 1 -10 9 0 12 -8 14 -32 10 -31 -5 -32 -5
-14 10 19 16 19 16 -1 16 -12 0 -25 5 -28 10 -9 14 -27 12 -22 -2 2 -7 -3 -19
-12 -26 -14 -12 -13 -13 6 -9 18 4 22 0 25 -22 2 -21 10 -27 38 -32 19 -4 27
-7 18 -8 -31 -2 -33 -2 -45 -13 -10 -8 -13 -6 -13 6 0 9 -4 16 -10 16 -5 0
-10 -6 -10 -12 0 -9 -3 -9 -9 1 -5 8 -16 11 -26 7 -13 -4 -16 -2 -11 9 4 12
-1 15 -25 13 -20 -2 -28 -7 -24 -16 3 -7 5 -18 5 -23 0 -5 7 -9 15 -9 8 0 15
-7 15 -15 0 -8 6 -15 14 -15 14 0 42 -28 35 -34 -2 -2 -14 -7 -26 -10 -17 -6
-23 -3 -23 8 0 9 -4 16 -10 16 -5 0 -10 -7 -10 -15 0 -13 -4 -13 -22 -3 -13 7
-26 18 -30 23 -5 6 -8 6 -8 -2 0 -8 -10 -6 -32 5 -18 9 -41 15 -52 13 -10 -1
-15 2 -12 7 4 6 2 13 -4 17 -5 3 -10 -1 -10 -9 0 -9 -5 -16 -10 -16 -6 0 -9
-12 -7 -27 3 -21 9 -27 23 -25 17 2 17 2 2 -8 -9 -6 -15 -17 -12 -25 4 -8 1
-15 -5 -15 -6 0 -11 5 -11 10 0 6 -5 10 -11 10 -5 0 -8 -4 -5 -9 3 -5 -14 1
-38 13 -27 13 -39 24 -32 28 10 7 -16 13 -38 9 -5 -1 -13 4 -17 11 -14 23 -18
2 -7 -35 8 -24 16 -36 25 -33 7 3 13 -1 13 -9 0 -8 8 -15 18 -15 14 0 15 -2 2
-10 -12 -8 -12 -10 5 -10 26 -1 78 -39 53 -40 -9 0 -20 5 -23 10 -3 6 -14 10
-24 10 -21 0 -71 22 -71 33 0 4 -9 7 -21 7 -11 0 -17 5 -14 10 4 6 -5 10 -19
10 -14 0 -26 -4 -26 -10 0 -5 7 -7 15 -4 8 4 15 1 15 -5 0 -6 -7 -11 -16 -11
-11 0 -14 -5 -10 -16 3 -9 6 -20 6 -25 0 -5 8 -9 18 -9 14 0 14 -2 3 -9 -8 -5
-20 -7 -28 -4 -7 3 -13 0 -13 -6 0 -15 -33 -14 -48 1 -9 9 -12 6 -12 -16 0
-24 2 -27 15 -16 10 9 15 9 15 1 0 -6 -5 -11 -11 -11 -6 0 -9 -9 -6 -20 3 -11
1 -20 -4 -20 -5 0 -9 7 -9 16 0 8 -4 13 -10 9 -5 -3 -7 -12 -3 -20 3 -9 -1
-15 -11 -15 -9 0 -16 -5 -16 -10 0 -6 12 -8 28 -4 17 3 22 2 14 -3 -9 -7 -10
-17 -1 -41 9 -27 8 -34 -10 -53 -25 -27 -27 -41 -4 -32 11 4 14 3 9 -5 -4 -7
-14 -12 -23 -12 -9 0 -13 -6 -10 -14 3 -8 -1 -17 -8 -20 -8 -3 -12 -12 -9 -21
4 -8 0 -17 -9 -21 -9 -3 -13 -12 -10 -20 3 -8 0 -14 -6 -14 -6 0 -11 -5 -11
-11 0 -5 5 -7 10 -4 6 3 10 1 10 -4 0 -6 -5 -11 -11 -11 -6 0 -9 -12 -8 -28 2
-15 0 -33 -4 -40 -5 -6 -6 -16 -3 -21 3 -5 8 -60 10 -122 3 -63 7 -130 10
-149 14 -92 19 -116 26 -125 4 -5 18 -41 29 -80 19 -62 21 -83 15 -195 -4 -69
-10 -114 -14 -100 -6 23 -7 21 -14 -15 -4 -22 -12 -45 -18 -52 -14 -17 -14
-81 0 -95 8 -8 10 -3 6 23 -3 20 1 49 9 69 l15 34 6 -69 c4 -39 10 -76 15 -84
24 -46 28 -10 23 256 -6 363 10 451 121 683 35 74 41 95 44 162 2 65 7 88 35
140 18 35 42 72 53 84 27 27 86 48 95 34 12 -19 43 -14 155 26 121 42 82 39
428 31 57 -1 80 2 86 12 9 15 26 14 171 -12 41 -7 86 -20 100 -27 14 -8 31
-13 38 -12 6 2 12 -1 12 -7 0 -5 15 -12 33 -16 39 -8 106 -46 129 -73 34 -42
66 -158 82 -298 9 -77 24 -206 35 -289 27 -229 22 -409 -21 -658 -20 -121 -20
-158 2 -90 15 45 35 71 27 33 -3 -14 -8 -36 -12 -50 -6 -24 -6 -24 9 -6 16 20
22 77 9 90 -10 10 -5 82 18 234 10 74 19 146 19 161 0 15 9 46 20 69 11 23 27
70 35 104 8 35 22 87 31 116 39 135 47 199 30 250 -5 16 -3 22 8 22 12 0 13 6
5 32 -5 17 -12 34 -17 37 -13 9 -33 72 -26 82 3 5 1 9 -4 9 -5 0 -12 9 -15 20
-3 11 0 20 5 20 6 0 4 7 -3 17 -10 11 -10 17 -3 20 11 4 -13 114 -29 130 -5 4
-5 0 -2 -9 4 -9 2 -19 -4 -23 -7 -3 -11 3 -11 15 0 16 -4 20 -16 16 -13 -5
-14 -4 -6 7 17 19 4 57 -16 49 -15 -5 -15 -4 -3 11 18 22 7 47 -21 48 -17 1
-18 2 -5 6 21 5 23 23 2 23 -8 0 -15 4 -15 10 0 5 7 7 15 4 8 -4 15 -1 15 6 0
8 -11 11 -30 8 -16 -3 -30 -1 -30 4 0 4 -6 8 -13 8 -18 0 -67 23 -67 32 0 4 7
5 16 1 12 -4 15 -2 12 8 -5 16 -37 19 -58 4 -13 -9 -13 -8 -1 8 8 10 20 16 27
13 7 -3 16 -1 19 4 4 6 -3 10 -14 10 -12 0 -21 5 -21 10 0 6 -5 10 -11 10 -5
0 -7 -4 -4 -10 3 -5 1 -10 -4 -10 -6 0 -11 5 -11 10 0 6 -5 10 -11 10 -6 0 -9
-7 -5 -15 3 -8 1 -15 -4 -15 -6 0 -10 9 -10 19 0 11 -4 23 -10 26 -5 3 -10 -1
-10 -9 0 -9 -5 -16 -11 -16 -5 0 -8 4 -4 9 3 5 1 12 -5 16 -6 3 -10 -4 -10
-17 -1 -20 -2 -21 -11 -6 -5 10 -16 15 -24 12 -8 -4 -15 -1 -15 5 0 6 5 11 10
11 6 0 10 12 10 26 0 19 -4 25 -15 20 -9 -3 -20 5 -29 22 -11 19 -15 22 -16
10 0 -10 -7 -18 -16 -18 -10 0 -14 -6 -11 -14 3 -8 -2 -17 -11 -21 -12 -5 -13
-8 -4 -14 10 -6 10 -10 0 -19 -9 -7 -19 -8 -28 -2 -8 6 -10 10 -4 10 7 0 9 11
6 25 -5 29 -22 34 -23 8 0 -12 -2 -13 -6 -5 -3 7 3 22 13 33 10 11 12 19 6 19
-7 0 -12 7 -12 16 0 8 -4 13 -9 10 -5 -3 -7 -16 -4 -29 4 -13 2 -19 -3 -14 -5
5 -9 14 -9 20 0 7 -9 12 -20 12 -11 0 -19 6 -17 13 1 6 -3 12 -9 12 -6 0 -9
-7 -6 -15 4 -8 2 -17 -3 -20 -6 -4 -10 1 -10 9 0 22 -17 20 -23 -1 -4 -17 -5
-17 -6 0 -1 20 -12 22 -29 5 -9 -9 -12 -9 -12 -1 0 7 5 15 10 18 14 8 13 45
-1 45 -6 0 -9 -7 -5 -15 3 -8 1 -15 -4 -15 -6 0 -10 8 -10 17 0 12 -3 14 -11
6 -8 -8 -8 -17 0 -31 13 -25 14 -32 2 -32 -9 0 -27 57 -23 73 1 4 -2 7 -8 7
-5 0 -10 -6 -10 -14z m-88 -41 c4 -5 8 -14 8 -20 -1 -5 -5 -3 -10 6 -14 24
-60 13 -61 -15 0 -20 -1 -20 -8 -1 -5 11 -6 26 -4 33 6 14 65 13 75 -3z m98 5
c0 -5 -10 -10 -22 -10 -19 0 -20 2 -8 10 19 13 30 13 30 0z m10 -24 c0 -3 -4
-8 -10 -11 -5 -3 -10 -1 -10 4 0 6 5 11 10 11 6 0 10 -2 10 -4z m-262 -43
c-10 -2 -18 -12 -18 -20 0 -9 -3 -14 -6 -10 -12 11 5 37 23 36 17 -1 17 -2 1
-6z m129 1 c-3 -3 -12 -4 -19 -1 -8 3 -5 6 6 6 11 1 17 -2 13 -5z m273 -29 c0
-5 -5 -3 -10 5 -5 8 -10 20 -10 25 0 6 5 3 10 -5 5 -8 10 -19 10 -25z m-73 3
c-3 -8 -6 -5 -6 6 -1 11 2 17 5 13 3 -3 4 -12 1 -19z m-727 -112 c0 -3 -4 -8
-10 -11 -5 -3 -10 -1 -10 4 0 6 5 11 10 11 6 0 10 -2 10 -4z m1055 -6 c3 -5 1
-10 -4 -10 -6 0 -11 5 -11 10 0 6 2 10 4 10 3 0 8 -4 11 -10z m35 6 c0 -3 -4
-8 -10 -11 -5 -3 -10 -1 -10 4 0 6 5 11 10 11 6 0 10 -2 10 -4z m14 -66 c-6
-5 -24 21 -24 34 0 6 6 1 14 -10 8 -10 12 -21 10 -24z m83 24 c-3 -3 -12 -4
-19 -1 -8 3 -5 6 6 6 11 1 17 -2 13 -5z m-7 -58 c0 -2 -9 -6 -20 -9 -11 -3
-18 -1 -14 4 5 9 34 13 34 5z m140 -26 c0 -5 -4 -10 -10 -10 -5 0 -10 5 -10
10 0 6 5 10 10 10 6 0 10 -4 10 -10z m25 -120 c3 -5 1 -10 -4 -10 -6 0 -11 5
-11 10 0 6 2 10 4 10 3 0 8 -4 11 -10z m25 -132 c0 -4 -9 -8 -20 -8 -11 0 -20
4 -20 9 0 6 9 9 20 8 11 -1 20 -5 20 -9z m10 -27 c0 -5 -6 -12 -12 -14 -9 -4
-7 -6 3 -6 11 -1 15 -9 14 -26 -2 -14 1 -25 7 -25 5 0 8 -6 5 -12 -2 -7 7 -30
20 -50 27 -43 32 -78 9 -59 -12 10 -14 -2 -13 -85 1 -65 -2 -98 -9 -101 -7 -2
-10 -14 -8 -26 3 -14 0 -11 -7 7 -9 22 -9 30 2 37 11 7 9 9 -6 10 -11 0 -14 3
-7 6 19 8 15 33 -5 27 -16 -5 -16 -4 -2 5 13 8 15 19 9 53 -5 24 -6 46 -4 50
3 5 0 8 -5 8 -6 0 -11 7 -11 15 0 8 -5 15 -11 15 -6 0 -9 -7 -5 -15 3 -8 1
-15 -3 -15 -13 0 -24 34 -12 38 6 2 11 11 11 20 0 15 -2 15 -10 2 -8 -13 -10
-12 -11 5 -2 26 -2 27 6 48 6 14 3 16 -11 11 -13 -4 -15 -3 -6 3 7 5 10 17 6
26 -4 12 -1 17 10 17 9 0 16 8 16 20 0 13 7 20 20 20 11 0 20 -4 20 -9z
m-1655 -11 c3 -5 1 -10 -4 -10 -6 0 -11 5 -11 10 0 6 2 10 4 10 3 0 8 -4 11
-10z m-10 -80 c3 -5 1 -10 -4 -10 -6 0 -11 5 -11 10 0 6 2 10 4 10 3 0 8 -4
11 -10z"/>
<path d="M2810 3309 c0 -5 5 -7 10 -4 6 3 10 8 10 11 0 2 -4 4 -10 4 -5 0 -10
-5 -10 -11z"/>
<path d="M2795 3250 c-3 -5 -1 -10 4 -10 6 0 11 5 11 10 0 6 -2 10 -4 10 -3 0
-8 -4 -11 -10z"/>
<path d="M2204 4004 c3 -9 6 -19 6 -24 0 -4 9 -6 20 -3 13 3 20 13 19 27 -1
17 -2 17 -6 4 -5 -22 -23 -24 -23 -3 0 8 -5 15 -11 15 -6 0 -8 -7 -5 -16z"/>
<path d="M2045 4000 c-3 -5 1 -10 10 -10 9 0 13 5 10 10 -3 6 -8 10 -10 10 -2
0 -7 -4 -10 -10z"/>
<path d="M1610 3950 c0 -5 5 -10 10 -10 6 0 10 5 10 10 0 6 -4 10 -10 10 -5 0
-10 -4 -10 -10z"/>
<path d="M2448 3955 c-8 -8 2 -45 13 -45 10 0 10 8 0 33 -3 10 -9 15 -13 12z"/>
<path d="M1680 3929 c0 -5 5 -7 10 -4 6 3 10 8 10 11 0 2 -4 4 -10 4 -5 0 -10
-5 -10 -11z"/>
<path d="M1500 3890 c0 -5 5 -10 11 -10 5 0 7 5 4 10 -3 6 -8 10 -11 10 -2 0
-4 -4 -4 -10z"/>
<path d="M2635 3840 c-3 -5 -1 -10 4 -10 6 0 11 5 11 10 0 6 -2 10 -4 10 -3 0
-8 -4 -11 -10z"/>
<path d="M2733 3826 c3 -7 0 -19 -6 -25 -8 -8 -7 -11 4 -11 9 0 18 3 21 6 9 8
-3 44 -14 44 -6 0 -8 -6 -5 -14z"/>
<path d="M1390 3820 c0 -5 5 -10 10 -10 6 0 10 5 10 10 0 6 -4 10 -10 10 -5 0
-10 -4 -10 -10z"/>
<path d="M2700 3820 c0 -5 5 -10 10 -10 6 0 10 5 10 10 0 6 -4 10 -10 10 -5 0
-10 -4 -10 -10z"/>
<path d="M2842 3808 c-1 -14 -5 -35 -8 -45 -5 -14 -4 -15 5 -7 7 7 11 26 8 45
-3 28 -4 29 -5 7z"/>
<path d="M1180 3769 c0 -5 5 -7 10 -4 6 3 10 8 10 11 0 2 -4 4 -10 4 -5 0 -10
-5 -10 -11z"/>
<path d="M2720 3773 c-14 -3 -29 -9 -35 -15 -7 -7 -3 -9 13 -5 15 3 22 1 22
-9 0 -8 10 -14 24 -14 32 0 45 20 14 21 -17 1 -18 3 -5 6 9 2 17 9 17 14 0 9
-7 10 -50 2z"/>
<path d="M2829 3738 c-5 -17 -4 -48 3 -48 4 0 8 11 8 25 0 20 -7 34 -11 23z"/>
<path d="M1171 3704 c0 -11 3 -14 6 -6 3 7 2 16 -1 19 -3 4 -6 -2 -5 -13z"/>
<path d="M2815 3630 c3 -5 8 -10 11 -10 2 0 4 5 4 10 0 6 -5 10 -11 10 -5 0
-7 -4 -4 -10z"/>
<path d="M1403 2980 c-37 -23 -68 -58 -59 -67 4 -4 82 -8 174 -9 130 -1 177
-5 212 -18 25 -9 62 -18 82 -20 l38 -3 -18 30 c-37 64 -125 95 -289 100 -93 4
-117 1 -140 -13z"/>
<path d="M2260 2934 c-23 -10 -50 -36 -50 -48 1 -31 19 -36 150 -42 74 -3 151
-10 170 -15 47 -12 53 -11 47 5 -8 21 21 28 32 8 6 -9 11 -12 11 -5 0 22 -51
60 -103 76 -55 17 -231 31 -257 21z"/>
<path d="M1564 2820 c39 -5 89 -16 113 -25 54 -21 68 -13 21 11 -22 12 -61 18
-118 20 l-85 3 69 -9z"/>
<path d="M1435 2806 c-31 -13 -65 -46 -48 -46 5 0 13 4 19 9 5 5 27 18 49 30
43 23 28 28 -20 7z"/>
<path d="M1461 2769 c-34 -14 -81 -49 -81 -61 0 -16 57 -1 87 22 32 25 43 25
43 1 0 -10 6 -23 13 -29 15 -12 157 -21 157 -10 0 4 -7 8 -15 8 -8 0 -15 7
-15 15 0 21 26 19 49 -4 20 -20 81 -38 81 -24 -1 11 -96 67 -139 82 -40 13
-146 14 -180 0z"/>
<path d="M2295 2764 c-40 -10 -75 -27 -75 -35 0 -11 -3 -11 45 6 53 19 157 19
202 0 20 -9 51 -27 69 -40 43 -33 54 -32 23 1 -13 15 -42 35 -65 45 -41 19
-161 32 -199 23z"/>
<path d="M2258 2697 c-65 -25 -95 -47 -62 -47 10 1 30 7 44 15 14 8 30 14 37
15 18 0 4 -28 -15 -33 -10 -2 17 -7 57 -11 74 -8 75 -8 98 19 l24 27 40 -27
c23 -14 57 -29 77 -32 l37 -6 -48 37 c-26 21 -63 44 -82 52 -50 21 -140 17
-207 -9z"/>
<path d="M1760 2293 c0 -10 128 -63 154 -63 29 0 17 16 -29 38 -51 25 -125 40
-125 25z"/>
<path d="M1721 2260 c11 -18 26 -26 50 -27 19 -1 25 1 14 4 -11 3 -33 15 -50
26 l-30 22 16 -25z"/>
<path d="M2031 2263 c-27 -5 -51 -26 -51 -43 0 -8 7 -9 18 -5 9 4 44 10 76 14
62 6 84 24 44 35 -25 6 -49 6 -87 -1z"/>
<path d="M2133 2213 c-13 -2 -23 -9 -23 -14 0 -14 24 -11 46 6 19 15 16 16
-23 8z"/>
<path d="M1751 2161 c-10 -10 -23 -27 -28 -36 -8 -14 -27 -18 -84 -21 -41 -2
-81 -4 -91 -4 -9 -1 -24 -10 -33 -20 -10 -11 -21 -17 -26 -14 -4 2 -13 -5 -19
-17 -13 -24 -5 -73 10 -64 6 4 8 10 5 15 -3 5 -1 11 5 15 6 4 10 -7 11 -27 1
-18 3 -25 6 -15 3 12 8 15 16 8 7 -5 62 -12 122 -16 65 -4 139 -15 180 -27 53
-16 89 -21 145 -18 95 5 226 3 266 -5 28 -5 42 -13 91 -55 8 -7 14 -6 20 3 11
17 6 158 -6 170 -6 6 -43 14 -82 18 -59 7 -77 13 -100 35 -16 15 -31 36 -35
46 -6 19 -44 26 -44 8 0 -6 7 -22 16 -35 10 -15 12 -25 5 -25 -6 0 -11 5 -11
11 0 5 -4 7 -10 4 -5 -3 -10 1 -10 9 0 17 -46 56 -67 56 -8 0 -11 -4 -8 -10 3
-5 0 -7 -8 -5 -17 7 -34 -26 -42 -82 -6 -38 -4 -43 12 -42 20 0 64 17 49 18
-5 1 -1 10 9 21 10 11 14 20 9 20 -5 0 -10 11 -10 25 -3 45 15 26 32 -35 9
-33 21 -60 25 -60 5 0 9 4 9 8 0 11 27 8 60 -5 14 -6 30 -8 37 -6 7 3 18 1 25
-3 7 -5 17 -9 22 -9 5 0 11 -10 12 -22 4 -22 1 -23 -89 -24 -50 0 -118 -4
-150 -8 -45 -6 -79 -2 -150 15 -51 13 -125 28 -164 34 -40 7 -73 15 -73 18 0
12 95 42 98 32 2 -6 10 -10 18 -10 27 0 94 25 94 35 0 5 5 3 10 -5 8 -13 10
-12 10 3 0 9 5 17 10 17 6 0 10 -4 10 -10 0 -5 4 -10 10 -10 5 0 7 6 4 14 -3
8 2 26 12 41 24 37 8 45 -22 10 l-24 -30 6 29 7 30 -23 -22 c-13 -12 -26 -19
-29 -16 -3 3 -1 8 5 12 6 4 14 17 18 30 7 19 4 22 -23 22 -17 0 -39 -8 -50
-19z"/>
<path d="M2360 2013 c1 -5 7 -19 15 -33 10 -18 14 -20 15 -8 0 23 -11 48 -21
48 -5 0 -9 -3 -9 -7z"/>
<path d="M1804 1789 c-6 -10 37 -40 47 -33 4 2 6 -14 4 -36 -4 -37 -3 -40 15
-30 10 5 45 10 77 10 68 0 78 6 81 42 2 25 -2 27 -41 32 -23 3 -73 9 -110 14
-37 4 -70 5 -73 1z"/>
<path d="M2429 1633 c-59 -66 -137 -117 -182 -122 -4 0 -29 -10 -55 -21 -46
-21 -56 -21 -147 -4 -26 5 -33 1 -44 -20 -14 -26 -100 -63 -110 -48 -3 4 -22
9 -41 10 -48 3 -160 33 -160 43 0 5 -9 9 -20 9 -11 0 -20 5 -20 10 0 6 -6 10
-14 10 -7 0 -19 6 -25 14 -7 8 -36 26 -65 40 -29 14 -63 35 -76 46 -35 30 -49
27 -31 -8 5 -9 14 -28 20 -42 6 -14 15 -32 20 -40 6 -8 20 -36 32 -62 15 -33
29 -48 48 -53 14 -4 60 -21 101 -39 45 -20 101 -36 140 -40 194 -20 183 -20
271 8 65 21 94 36 129 69 25 24 61 54 80 67 80 56 190 166 190 190 0 17 -15
11 -41 -17z"/>
<path d="M2504 1605 c2 -17 5 -31 6 -32 2 -2 3 -6 4 -10 1 -5 8 -25 16 -46 11
-30 16 -34 21 -20 4 10 7 -19 7 -65 1 -63 -6 -107 -27 -180 -33 -113 -78 -215
-92 -206 -14 8 -39 -28 -33 -48 3 -10 -16 -36 -58 -75 -35 -32 -95 -91 -134
-132 -39 -40 -80 -74 -90 -75 -10 -1 -41 -9 -69 -18 -27 -9 -63 -19 -78 -22
-15 -4 -25 -11 -22 -16 3 -6 -4 -10 -17 -10 -19 0 -20 2 -8 11 12 8 11 9 -5 5
-11 -3 -58 -7 -105 -8 -75 -1 -92 2 -145 27 -63 30 -68 32 -99 34 -12 1 -16 6
-12 17 4 9 2 22 -2 28 -12 14 -26 67 -23 85 1 7 -2 10 -7 7 -12 -7 -107 121
-163 220 -17 32 -20 48 -15 98 4 36 0 93 -8 138 -15 83 -9 137 21 216 19 51
14 60 -23 35 -26 -17 -28 -17 -21 0 6 15 4 16 -15 6 -16 -8 -23 -9 -26 -1 -2
6 -10 8 -18 5 -7 -3 -12 -9 -9 -13 3 -5 0 -12 -6 -16 -8 -5 -9 -3 -4 6 6 10 4
12 -9 7 -10 -4 -20 -7 -22 -7 -3 0 -2 -4 1 -10 3 -5 0 -7 -8 -4 -14 5 -257
-99 -362 -154 -81 -43 -171 -102 -156 -102 7 0 29 10 48 21 19 12 49 25 68 29
30 7 33 6 23 -10 -6 -10 -25 -26 -42 -36 l-31 -17 20 23 20 23 -32 -18 c-19
-11 -28 -22 -22 -26 8 -4 7 -8 -2 -12 -8 -3 0 -6 16 -7 26 -1 27 -3 10 -10
-20 -8 -20 -9 1 -9 11 -1 29 6 40 15 16 13 16 15 2 10 -26 -8 -22 -2 17 28 19
15 32 20 29 13 -4 -12 2 -12 48 0 29 7 81 18 116 23 35 5 71 15 79 22 9 7 40
13 70 13 l53 0 0 -37 c0 -46 9 -70 24 -61 7 4 7 2 -1 -7 -9 -10 -15 -11 -26
-1 -12 9 -21 9 -41 -1 -21 -9 -40 -9 -85 0 -77 16 -92 15 -142 -8 -24 -11 -58
-20 -75 -20 -17 0 -48 -11 -68 -25 -38 -26 -80 -33 -91 -14 -11 17 -57 31 -82
24 -16 -4 -22 -12 -20 -27 2 -18 -6 -24 -42 -35 -49 -14 -64 -10 -37 10 10 7
16 19 14 27 -3 14 1 16 40 19 16 1 16 2 -1 12 -14 8 -32 7 -70 -5 -29 -9 -82
-17 -119 -18 -38 -1 -68 -6 -68 -11 0 -5 -6 -7 -13 -4 -7 2 -35 -20 -62 -50
-28 -31 -65 -62 -82 -69 -35 -15 -154 -106 -147 -113 2 -2 23 13 48 33 24 20
49 36 55 36 7 0 14 7 17 15 4 8 10 12 15 9 5 -3 7 -9 4 -14 -3 -5 -1 -11 5
-15 5 -3 10 -1 10 6 0 8 4 8 15 -1 8 -7 15 -20 14 -29 0 -12 -2 -12 -8 3 -11
29 -17 7 -31 -122 -7 -62 -14 -112 -16 -112 -1 0 -18 27 -36 60 -18 34 -38 58
-45 56 -6 -3 -19 6 -27 20 -9 13 -23 24 -31 24 -13 0 -15 -60 -15 -455 l0
-455 137 0 c118 0 134 2 118 14 -11 8 -16 19 -12 30 8 21 39 34 45 18 2 -7 12
-12 23 -12 14 0 19 -7 19 -25 l0 -25 145 0 c137 0 145 1 145 20 0 10 14 35 31
54 32 37 80 53 118 41 36 -11 79 -54 86 -85 l7 -30 145 0 c128 0 144 2 133 15
-7 8 -10 21 -7 29 7 19 67 51 67 36 0 -6 -11 -16 -25 -22 -25 -11 -35 -38 -15
-38 6 0 24 7 40 15 38 20 40 1 3 -19 -25 -14 118 -15 1305 -16 l1333 0 77 34
c54 24 96 36 140 39 38 2 57 0 50 -6 -8 -5 3 -6 27 -2 31 4 37 3 25 -5 -12 -9
-7 -10 20 -6 21 4 30 3 22 -3 -10 -6 0 -12 32 -20 54 -13 66 -14 46 -1 -11 7
-12 10 -2 10 11 0 13 23 10 111 l-3 110 -40 35 c-22 18 -45 34 -50 34 -6 0
-24 20 -39 45 -16 25 -32 45 -37 45 -4 0 -10 14 -14 31 -4 18 -15 33 -25 36
-10 3 -23 16 -30 29 -8 13 -19 24 -27 24 -7 0 -12 6 -11 12 2 7 -5 12 -14 12
-15 -1 -16 2 -7 19 10 17 9 19 -5 14 -17 -7 -66 32 -66 52 0 6 -5 11 -11 11
-6 0 -9 -7 -5 -15 3 -8 1 -15 -4 -15 -6 0 -10 6 -10 13 0 6 -15 18 -32 25 -18
8 -42 18 -53 23 -14 7 -36 5 -70 -6 -56 -17 -99 -20 -77 -6 8 5 15 20 15 35 1
16 7 24 14 21 7 -2 12 1 10 8 -1 7 10 12 31 12 33 0 33 0 26 39 -4 27 -3 36 5
32 7 -5 11 2 11 16 0 16 -10 30 -29 41 -36 21 -42 21 -35 2 4 -10 0 -15 -11
-15 -9 0 -13 -4 -10 -10 3 -5 0 -7 -9 -4 -17 7 -59 -14 -51 -25 2 -5 -3 -15
-12 -22 -12 -10 -14 -10 -9 -1 11 18 1 15 -15 -5 -12 -14 -12 -16 0 -9 9 6 12
5 10 -3 -3 -7 -8 -12 -13 -11 -10 2 -66 -51 -66 -63 0 -5 8 -3 18 4 9 7 2 -3
-17 -24 -19 -20 -37 -34 -41 -32 -11 7 -43 -32 -36 -44 3 -5 -7 -19 -24 -31
-16 -12 -30 -28 -30 -36 0 -8 -3 -14 -8 -14 -4 0 -16 -16 -27 -36 -18 -34 -51
-61 -62 -51 -2 3 -28 -6 -56 -19 -29 -13 -62 -24 -75 -24 -12 0 -45 -11 -73
-26 -38 -19 -54 -34 -66 -61 -10 -26 -17 -33 -23 -23 -5 8 -13 9 -21 4 -8 -5
-70 -11 -139 -15 -69 -3 -152 -11 -185 -17 -33 -6 -116 -16 -183 -22 -126 -12
-154 -17 -149 -29 2 -3 -8 -17 -21 -31 -14 -14 -22 -19 -17 -11 6 10 1 12 -21
7 -16 -3 -76 -10 -133 -16 -67 -7 -122 -20 -157 -35 -96 -43 -222 -57 -258
-30 -23 17 -87 20 -103 4 -8 -8 -13 -8 -17 0 -4 6 -1 12 6 12 7 1 -5 5 -27 10
-22 4 -135 8 -251 8 -176 1 -214 -1 -224 -14 -10 -12 -10 -18 0 -30 7 -8 8
-15 2 -15 -5 0 -15 7 -23 16 -10 12 -10 20 -1 35 15 23 26 22 -313 24 -178 1
-241 5 -277 17 -27 9 -48 12 -48 7 0 -5 5 -9 12 -9 9 0 9 -3 -1 -13 -10 -10
-17 -7 -34 15 -21 26 -30 28 -137 38 -63 5 -121 10 -129 10 -11 0 -13 18 -9
90 2 49 7 93 11 96 16 16 243 -18 342 -51 88 -29 108 -33 170 -28 122 10 454
4 640 -11 33 -3 150 -11 260 -18 138 -9 186 -15 155 -19 -40 -5 -36 -6 27 -7
97 -3 282 24 336 48 24 11 92 26 151 33 100 13 108 16 135 46 29 32 30 32 112
30 80 -2 157 11 237 41 26 10 39 10 63 0 20 -9 54 -11 105 -6 83 6 104 14 83
27 -11 7 -10 9 4 9 9 0 17 6 17 13 0 7 14 14 33 15 42 3 68 12 63 20 -2 4 5
19 16 32 11 14 16 19 12 11 -5 -11 -3 -13 10 -8 10 4 50 8 89 8 60 2 65 3 32
8 l-40 7 53 5 c31 2 52 0 52 -6 0 -5 7 -1 15 9 15 19 11 41 -6 31 -5 -3 -6 0
-3 8 3 9 13 13 24 10 16 -4 22 5 36 53 9 33 20 63 25 69 5 5 9 15 9 23 0 7 14
33 31 58 25 33 44 47 83 60 77 26 120 27 141 4 10 -11 22 -20 27 -20 5 0 -5
12 -23 28 -18 15 -34 26 -36 24 -2 -1 -9 2 -16 7 -60 49 -87 75 -87 85 0 18
-38 46 -54 40 -21 -8 -42 6 -26 16 8 5 0 11 -21 19 -18 6 -35 9 -37 6 -3 -3 0
-5 6 -5 7 0 12 -4 12 -10 0 -19 -76 -11 -95 10 -10 11 -15 23 -12 26 10 10
-69 85 -85 82 -7 -2 -12 3 -11 9 7 32 -183 126 -294 147 -12 3 -31 14 -42 25
-12 12 -28 21 -36 21 -9 0 -28 8 -42 17 -18 12 -50 18 -101 20 -77 2 -95 10
-117 52 -7 14 -27 44 -45 66 l-31 39 5 -29z m-1358 -164 c-16 -18 -125 -62
-150 -61 -6 1 27 20 74 43 47 23 87 41 89 40 2 -2 -4 -12 -13 -22z m1600 -31
c26 -12 54 -18 65 -15 14 5 28 0 44 -15 15 -14 30 -20 43 -16 27 9 165 -30
235 -66 50 -26 72 -42 50 -36 -5 1 -22 -6 -40 -15 -39 -21 -67 -22 -96 -3 -12
8 -43 16 -69 18 -25 2 -46 5 -46 8 3 44 -26 58 -89 41 -33 -9 -45 -8 -78 9
-22 11 -47 17 -57 14 -16 -5 -18 1 -18 45 0 28 2 51 6 51 3 0 25 -9 50 -20z
m125 -17 c13 -16 12 -17 -3 -4 -17 13 -22 21 -14 21 2 0 10 -8 17 -17z m-1734
-19 c-3 -3 -12 -4 -19 -1 -8 3 -5 6 6 6 11 1 17 -2 13 -5z m-134 -41 c-7 -2
-19 -2 -25 0 -7 3 -2 5 12 5 14 0 19 -2 13 -5z m-90 -20 c-7 -2 -19 -2 -25 0
-7 3 -2 5 12 5 14 0 19 -2 13 -5z m1784 1 c-3 -3 -12 -4 -19 -1 -8 3 -5 6 6 6
11 1 17 -2 13 -5z m126 -31 c-7 -2 -21 -2 -30 0 -10 3 -4 5 12 5 17 0 24 -2
18 -5z m-72 -38 c58 -25 91 -64 101 -119 l6 -29 -34 39 c-19 21 -36 49 -40 60
-6 24 -42 44 -82 45 -24 0 -25 1 -7 9 11 5 21 9 21 9 1 1 17 -6 35 -14z m236
-1 c-3 -3 -12 -4 -19 -1 -8 3 -5 6 6 6 11 1 17 -2 13 -5z m22 -115 c6 -20 11
-44 11 -54 0 -11 5 -15 15 -11 9 3 19 -3 26 -16 10 -18 8 -24 -7 -35 -15 -11
-18 -25 -16 -71 3 -99 -7 -162 -26 -162 -15 0 -15 2 -2 10 9 6 11 13 5 18 -5
4 -11 30 -13 57 -1 28 -7 65 -13 83 -6 18 -12 78 -14 133 -2 56 -6 104 -9 107
-3 3 -6 10 -6 16 1 20 38 -37 49 -75z m204 54 c-5 -12 -2 -15 9 -10 17 6 68
-40 68 -61 0 -23 51 -40 93 -30 28 6 43 5 55 -4 8 -7 18 -12 21 -10 3 1 6 -2
6 -7 0 -5 3 -13 8 -17 11 -12 8 -42 -5 -47 -9 -3 -8 -7 3 -11 14 -6 13 -11
-10 -37 -34 -39 -52 -39 -41 2 14 47 -3 79 -41 79 -25 0 -30 -3 -25 -16 5 -14
4 -15 -9 -4 -23 19 -27 7 -10 -33 21 -51 19 -57 -18 -57 -40 0 -87 20 -87 38
0 7 -5 10 -11 7 -12 -8 -40 26 -32 38 3 5 9 3 14 -4 6 -10 9 -8 9 8 0 17 -4
21 -17 16 -15 -5 -16 -3 -5 8 6 7 12 27 12 44 0 17 5 36 10 41 14 14 1 47 -15
40 -7 -2 -15 4 -18 14 -3 13 0 17 9 13 9 -3 14 1 14 12 0 9 4 14 10 10 5 -3 6
-13 3 -22z m48 10 c13 -16 12 -17 -3 -4 -17 13 -22 21 -14 21 2 0 10 -8 17
-17z m-523 -101 c0 -20 2 -44 4 -52 2 -9 -6 -16 -22 -18 -21 -3 -22 -2 -11 12
13 16 11 77 -4 121 -6 18 -5 18 14 -3 12 -14 20 -36 19 -60z m-2208 -21 c0 -6
-4 -13 -10 -16 -5 -3 -10 1 -10 9 0 9 5 16 10 16 6 0 10 -4 10 -9z m-38 -29
c-7 -2 -12 -9 -12 -16 0 -7 -17 -20 -37 -29 -45 -20 -123 -38 -123 -28 1 16
29 40 53 46 15 4 27 11 27 17 0 5 5 6 10 3 6 -3 17 1 26 10 9 9 23 14 30 11 7
-3 17 0 21 6 5 9 8 8 11 -2 3 -8 0 -16 -6 -18z m3075 -88 c-3 -3 -12 -4 -19
-1 -8 3 -5 6 6 6 11 1 17 -2 13 -5z m-3370 -26 c-3 -8 -6 -5 -6 6 -1 11 2 17
5 13 3 -3 4 -12 1 -19z m2676 2 c-3 -11 -9 -23 -14 -26 -5 -3 -9 -15 -10 -27
l0 -22 -9 22 c-6 14 -4 31 3 47 14 31 38 35 30 6z m347 10 c0 -5 -5 -10 -11
-10 -5 0 -7 5 -4 10 3 6 8 10 11 10 2 0 4 -4 4 -10z m-3033 -87 c-3 -10 -5 -2
-5 17 0 19 2 27 5 18 2 -10 2 -26 0 -35z m-10 -110 c-3 -10 -5 -2 -5 17 0 19
2 27 5 18 2 -10 2 -26 0 -35z m3468 27 c3 -5 1 -10 -4 -10 -6 0 -11 5 -11 10
0 6 2 10 4 10 3 0 8 -4 11 -10z m-1580 -90 c-11 -5 -27 -9 -35 -9 -9 0 -8 4 5
9 11 5 27 9 35 9 9 0 8 -4 -5 -9z m-62 -17 c-7 -2 -19 -2 -25 0 -7 3 -2 5 12
5 14 0 19 -2 13 -5z m-246 -19 c-3 -3 -12 -4 -19 -1 -8 3 -5 6 6 6 11 1 17 -2
13 -5z m131 -1 c-10 -2 -28 -2 -40 0 -13 2 -5 4 17 4 22 1 32 -1 23 -4z
m-1738 -217 c0 -3 -4 -8 -10 -11 -5 -3 -10 -1 -10 4 0 6 5 11 10 11 6 0 10 -2
10 -4z m137 -12 c-3 -3 -12 -4 -19 -1 -8 3 -5 6 6 6 11 1 17 -2 13 -5z m96
-11 c-7 -2 -19 -2 -25 0 -7 3 -2 5 12 5 14 0 19 -2 13 -5z m3527 -23 c0 -5 -2
-10 -4 -10 -3 0 -8 5 -11 10 -3 6 -1 10 4 10 6 0 11 -4 11 -10z m-1613 -6 c-3
-3 -12 -4 -19 -1 -8 3 -5 6 6 6 11 1 17 -2 13 -5z m-84 -11 c-7 -2 -19 -2 -25
0 -7 3 -2 5 12 5 14 0 19 -2 13 -5z m1672 -3 c3 -5 1 -10 -4 -10 -6 0 -11 5
-11 10 0 6 2 10 4 10 3 0 8 -4 11 -10z m-3758 -62 c-2 -13 -4 -3 -4 22 0 25 2
35 4 23 2 -13 2 -33 0 -45z m790 56 c-3 -3 -12 -4 -19 -1 -8 3 -5 6 6 6 11 1
17 -2 13 -5z m101 -1 c-10 -2 -26 -2 -35 0 -10 3 -2 5 17 5 19 0 27 -2 18 -5z
m1119 1 c-3 -3 -12 -4 -19 -1 -8 3 -5 6 6 6 11 1 17 -2 13 -5z m-1434 -11 c-7
-2 -19 -2 -25 0 -7 3 -2 5 12 5 14 0 19 -2 13 -5z m3137 -8 c-14 -8 -32 -14
-40 -14 -8 0 -1 7 15 14 39 18 57 18 25 0z m-2682 -2 c-16 -2 -40 -2 -55 0
-16 2 -3 4 27 4 30 0 43 -2 28 -4z m320 -10 c-10 -2 -26 -2 -35 0 -10 3 -2 5
17 5 19 0 27 -2 18 -5z m150 -10 c-10 -2 -28 -2 -40 0 -13 2 -5 4 17 4 22 1
32 -1 23 -4z m399 1 c-3 -3 -12 -4 -19 -1 -8 3 -5 6 6 6 11 1 17 -2 13 -5z
m-70 -10 c-3 -3 -12 -4 -19 -1 -8 3 -5 6 6 6 11 1 17 -2 13 -5z m-64 -11 c-7
-2 -19 -2 -25 0 -7 3 -2 5 12 5 14 0 19 -2 13 -5z m1094 -9 c-3 -3 -12 -4 -19
-1 -8 3 -5 6 6 6 11 1 17 -2 13 -5z m-64 -11 c-7 -2 -19 -2 -25 0 -7 3 -2 5
12 5 14 0 19 -2 13 -5z m1279 -17 c7 -13 4 -15 -19 -11 -15 2 -55 7 -88 11
-45 5 -55 9 -40 15 34 14 137 4 147 -15z m-1599 -13 c-13 -2 -33 -2 -45 0 -13
2 -3 4 22 4 25 0 35 -2 23 -4z m-120 -10 c-7 -2 -21 -2 -30 0 -10 3 -4 5 12 5
17 0 24 -2 18 -5z m-80 -10 c-7 -2 -19 -2 -25 0 -7 3 -2 5 12 5 14 0 19 -2 13
-5z m-2247 -21 c-10 -2 -22 0 -28 6 -6 6 0 7 19 4 21 -5 23 -7 9 -10z m97 -9
c-7 -2 -19 -2 -25 0 -7 3 -2 5 12 5 14 0 19 -2 13 -5z m130 -10 c-7 -2 -19 -2
-25 0 -7 3 -2 5 12 5 14 0 19 -2 13 -5z m-43 -32 c-7 -13 -7 -22 0 -26 5 -3
10 -1 10 4 0 6 5 11 11 11 6 0 8 -9 4 -20 -7 -23 4 -26 24 -7 11 10 13 9 9 -2
-2 -8 -12 -19 -21 -25 -13 -9 -22 -5 -43 15 -23 23 -24 29 -13 48 17 26 33 28
19 2z m1907 13 c-3 -3 -12 -4 -19 -1 -8 3 -5 6 6 6 11 1 17 -2 13 -5z m-94
-11 c-7 -2 -19 -2 -25 0 -7 3 -2 5 12 5 14 0 19 -2 13 -5z m-96 -9 c-3 -3 -12
-4 -19 -1 -8 3 -5 6 6 6 11 1 17 -2 13 -5z m-1309 -11 c-16 -2 -40 -2 -55 0
-16 2 -3 4 27 4 30 0 43 -2 28 -4z m299 1 c-3 -3 -12 -4 -19 -1 -8 3 -5 6 6 6
11 1 17 -2 13 -5z m653 -34 c0 -5 -4 -10 -10 -10 -5 0 -10 5 -10 10 0 6 5 10
10 10 6 0 10 -4 10 -10z m2370 -10 c0 -5 -5 -10 -11 -10 -5 0 -7 5 -4 10 3 6
8 10 11 10 2 0 4 -4 4 -10z m-2223 -16 c-3 -3 -12 -4 -19 -1 -8 3 -5 6 6 6 11
1 17 -2 13 -5z m-70 -10 c-3 -3 -12 -4 -19 -1 -8 3 -5 6 6 6 11 1 17 -2 13 -5z"/>
<path d="M2988 1308 c8 -8 17 -8 34 0 22 10 21 11 -11 11 -27 1 -32 -2 -23
-11z"/>
<path d="M3030 1041 c0 -6 5 -13 10 -16 6 -3 10 1 10 9 0 9 -4 16 -10 16 -5 0
-10 -4 -10 -9z"/>
<path d="M636 1251 c-9 -9 -16 -22 -16 -27 0 -5 4 -4 8 2 4 6 15 15 26 21 10
6 14 13 9 16 -6 4 -18 -2 -27 -12z"/>
<path d="M3775 780 c3 -5 8 -10 11 -10 2 0 4 5 4 10 0 6 -5 10 -11 10 -5 0 -7
-4 -4 -10z"/>
<path d="M2164 758 l-19 -23 23 19 c21 18 27 26 19 26 -2 0 -12 -10 -23 -22z"/>
<path d="M3890 722 c0 -5 7 -9 15 -9 8 0 12 4 9 9 -3 4 -9 8 -15 8 -5 0 -9 -4
-9 -8z"/>
<path d="M3491 688 c-14 -23 -14 -23 8 -4 22 20 25 26 13 26 -4 0 -13 -10 -21
-22z"/>
<path d="M2988 458 c-2 -7 -1 -29 2 -48 l6 -35 8 38 c5 23 5 42 -1 48 -7 7
-12 6 -15 -3z"/>
<path d="M2330 299 c0 -5 5 -7 10 -4 6 3 10 8 10 11 0 2 -4 4 -10 4 -5 0 -10
-5 -10 -11z"/>
<path d="M1687 212 c3 -12 9 -25 14 -28 14 -8 11 10 -6 32 -13 18 -14 18 -8
-4z"/>
<path d="M679 61 c-51 -51 -42 -61 61 -61 75 0 90 3 90 16 0 28 -56 74 -90 74
-22 0 -41 -9 -61 -29z"/>
<path d="M260 41 c0 -6 5 -13 10 -16 6 -3 10 1 10 9 0 9 -4 16 -10 16 -5 0
-10 -4 -10 -9z"/>
<path d="M295 30 c-4 -6 -3 -16 3 -22 6 -6 12 -6 17 2 4 6 3 16 -3 22 -6 6
-12 6 -17 -2z"/>
</g>
</svg>
